<svg width="60" height="60" viewBox="0 0 60 60" fill="none" xmlns="http://www.w3.org/2000/svg">
<path d="M15 29.9995C15 28.6734 15.3951 27.4017 16.0984 26.464C16.8016 25.5263 17.7554 24.9995 18.75 24.9995H41.25C42.2446 24.9995 43.1984 25.5263 43.9016 26.464C44.6049 27.4017 45 28.6734 45 29.9995V44.9995C45 46.3256 44.6049 47.5974 43.9016 48.535C43.1984 49.4727 42.2446 49.9995 41.25 49.9995H18.75C17.7554 49.9995 16.8016 49.4727 16.0984 48.535C15.3951 47.5974 15 46.3256 15 44.9995V29.9995Z" stroke="#222222" stroke-width="3" stroke-linecap="round" stroke-linejoin="round"/>
<path d="M22.5 25.0005V17.5005C22.5 15.5114 23.2902 13.6037 24.6967 12.1972C26.1032 10.7907 28.0109 10.0005 30 10.0005C31.9891 10.0005 33.8968 10.7907 35.3033 12.1972C36.7098 13.6037 37.5 15.5114 37.5 17.5005V25.0005" stroke="#222222" stroke-width="3" stroke-linecap="round" stroke-linejoin="round"/>
</svg>
