<svg width="41" height="40" viewBox="0 0 41 40" fill="none" xmlns="http://www.w3.org/2000/svg">
<g clip-path="url(#clip0_363_1030)">
<path d="M10.4993 6.6665H27.166L33.8327 13.3332V29.9998C33.8327 30.8839 33.4815 31.7317 32.8564 32.3569C32.2312 32.982 31.3834 33.3332 30.4993 33.3332H10.4993C9.61529 33.3332 8.76745 32.982 8.14233 32.3569C7.5172 31.7317 7.16602 30.8839 7.16602 29.9998V9.99984C7.16602 9.11578 7.5172 8.26794 8.14233 7.64281C8.76745 7.01769 9.61529 6.6665 10.4993 6.6665Z" stroke="#EFEFEF" stroke-width="2.5641" stroke-linecap="round" stroke-linejoin="round"/>
<path d="M17.166 23.3333C17.166 24.2174 17.5172 25.0652 18.1423 25.6904C18.7674 26.3155 19.6153 26.6667 20.4993 26.6667C21.3834 26.6667 22.2312 26.3155 22.8564 25.6904C23.4815 25.0652 23.8327 24.2174 23.8327 23.3333C23.8327 22.4493 23.4815 21.6014 22.8564 20.9763C22.2312 20.3512 21.3834 20 20.4993 20C19.6153 20 18.7674 20.3512 18.1423 20.9763C17.5172 21.6014 17.166 22.4493 17.166 23.3333Z" stroke="#EFEFEF" stroke-width="2.5641" stroke-linecap="round" stroke-linejoin="round"/>
<path d="M23.834 6.6665V13.3332H13.834V6.6665" stroke="#EFEFEF" stroke-width="2.5641" stroke-linecap="round" stroke-linejoin="round"/>
</g>
<defs>
<clipPath id="clip0_363_1030">
<rect width="40" height="40" fill="white" transform="translate(0.5)"/>
</clipPath>
</defs>
</svg>
