<svg width="29" height="29" viewBox="0 0 29 29" fill="none" xmlns="http://www.w3.org/2000/svg">
<g clip-path="url(#clip0_184_4016)">
<path d="M5.93652 15.2708C5.93652 14.652 6.18236 14.0585 6.61994 13.6209C7.05753 13.1833 7.65102 12.9375 8.26986 12.9375H19.9365C20.5554 12.9375 21.1489 13.1833 21.5864 13.6209C22.024 14.0585 22.2699 14.652 22.2699 15.2708V22.2708C22.2699 22.8897 22.024 23.4832 21.5864 23.9207C21.1489 24.3583 20.5554 24.6042 19.9365 24.6042H8.26986C7.65102 24.6042 7.05753 24.3583 6.61994 23.9207C6.18236 23.4832 5.93652 22.8897 5.93652 22.2708V15.2708Z" stroke="#DBDBDB" stroke-width="2" stroke-linecap="round" stroke-linejoin="round"/>
<path d="M12.9365 18.7702C12.9365 19.0796 13.0594 19.3763 13.2782 19.5951C13.497 19.8139 13.7938 19.9368 14.1032 19.9368C14.4126 19.9368 14.7094 19.8139 14.9281 19.5951C15.1469 19.3763 15.2699 19.0796 15.2699 18.7702C15.2699 18.4608 15.1469 18.164 14.9281 17.9452C14.7094 17.7264 14.4126 17.6035 14.1032 17.6035C13.7938 17.6035 13.497 17.7264 13.2782 17.9452C13.0594 18.164 12.9365 18.4608 12.9365 18.7702Z" stroke="#DBDBDB" stroke-width="2" stroke-linecap="round" stroke-linejoin="round"/>
<path d="M9.43652 12.9368V8.27018C9.43652 7.03251 9.92819 5.84552 10.8034 4.97035C11.6785 4.09518 12.8655 3.60352 14.1032 3.60352C15.3409 3.60352 16.5279 4.09518 17.403 4.97035C18.2782 5.84552 18.7699 7.03251 18.7699 8.27018V12.9368" stroke="#DBDBDB" stroke-width="2" stroke-linecap="round" stroke-linejoin="round"/>
</g>
<defs>
<clipPath id="clip0_184_4016">
<rect width="28" height="28" fill="white" transform="translate(0.102539 0.103516)"/>
</clipPath>
</defs>
</svg>
