<svg width="41" height="40" viewBox="0 0 41 40" fill="none" xmlns="http://www.w3.org/2000/svg">
<g clip-path="url(#clip0_359_3933)">
<path d="M8.83398 21.6668C8.83398 20.7827 9.18517 19.9349 9.81029 19.3097C10.4354 18.6846 11.2833 18.3334 12.1673 18.3334H28.834C29.718 18.3334 30.5659 18.6846 31.191 19.3097C31.8161 19.9349 32.1673 20.7827 32.1673 21.6668V31.6668C32.1673 32.5508 31.8161 33.3987 31.191 34.0238C30.5659 34.6489 29.718 35.0001 28.834 35.0001H12.1673C11.2833 35.0001 10.4354 34.6489 9.81029 34.0238C9.18517 33.3987 8.83398 32.5508 8.83398 31.6668V21.6668Z" stroke="#EFEFEF" stroke-width="3" stroke-linecap="round" stroke-linejoin="round"/>
<path d="M18.834 26.6667C18.834 27.1087 19.0096 27.5326 19.3221 27.8452C19.6347 28.1577 20.0586 28.3333 20.5007 28.3333C20.9427 28.3333 21.3666 28.1577 21.6792 27.8452C21.9917 27.5326 22.1673 27.1087 22.1673 26.6667C22.1673 26.2246 21.9917 25.8007 21.6792 25.4882C21.3666 25.1756 20.9427 25 20.5007 25C20.0586 25 19.6347 25.1756 19.3221 25.4882C19.0096 25.8007 18.834 26.2246 18.834 26.6667Z" stroke="#EFEFEF" stroke-width="3" stroke-linecap="round" stroke-linejoin="round"/>
<path d="M13.834 18.3333V11.6667C13.834 9.89856 14.5364 8.20286 15.7866 6.95262C17.0368 5.70238 18.7325 5 20.5007 5C22.2688 5 23.9645 5.70238 25.2147 6.95262C26.4649 8.20286 27.1673 9.89856 27.1673 11.6667V18.3333" stroke="#EFEFEF" stroke-width="3" stroke-linecap="round" stroke-linejoin="round"/>
</g>
<defs>
<clipPath id="clip0_359_3933">
<rect width="40" height="40" fill="white" transform="translate(0.5)"/>
</clipPath>
</defs>
</svg>
