<svg width="75" height="101" viewBox="0 0 75 101" fill="none" xmlns="http://www.w3.org/2000/svg">
<g clip-path="url(#clip0_184_3994)">
<path d="M33.6187 39.6364C33.6187 39.6364 34.7441 35.9509 35.0024 35.0782C35.0024 35.0782 30.2953 11.6895 12.4027 10.8141C12.4027 10.8141 2.74081 9.94945 0.642928 18.38C-1.08071 25.3027 1.24119 33.058 8.62069 38.5529C8.62069 38.5529 15.6918 44.691 32.0163 44.691L32.6937 42.6307C32.6937 42.6307 10.737 41.9849 7.14479 28.5638C5.50812 22.4444 8.65495 17.8409 14.1553 18.009C17.0386 18.0971 20.7758 18.4894 24.961 23.2424C29.1462 27.9954 31.4418 31.8651 33.6161 39.6391" fill="white"/>
<path d="M43.3255 42.6284C43.3255 42.6284 43.0488 43.6639 42.6798 44.6887C42.6798 44.6887 54.5555 45.1744 62.4885 41.625C69.441 38.5159 76.7204 29.1326 73.7976 19.0235C72.7961 15.5541 68.5397 9.75231 60.7939 10.8972C56.577 11.519 44.9464 13.7848 39.4856 31.8948C34.7811 47.4908 35.6113 45.6227 32.0138 56.6446C29.3572 64.8135 23.9833 69.692 18.8151 67.8532C16.2586 66.9432 13.8787 62.4704 18.4804 56.6739C21.9039 52.3746 25.1403 50.1969 30.4905 48.9053L31.0782 47.5229C31.0782 47.5229 21.0263 47.7203 15.1464 54.1653C15.1464 54.1653 8.34409 59.9538 10.4657 68.1735C10.7995 69.6697 11.5507 71.0373 12.63 72.1137C13.7093 73.19 15.0712 73.9297 16.5538 74.2448C16.5538 74.2448 26.5135 76.58 31.8636 66.9619C34.1683 62.2326 35.9884 57.2767 37.2954 52.1718C39.1877 44.7554 39.3248 43.6505 43.8685 30.91C47.3526 21.1318 54.3131 17.15 61.1602 18.2869C66.4866 19.1729 69.8232 25.5699 66.6447 32.65C64.6971 36.9894 58.7381 41.7904 43.3255 42.6417" fill="white"/>
<path d="M41.8018 48.905L42.2156 47.5039C42.2156 47.5039 48.2484 47.5786 53.783 49.8204C59.5311 52.1475 67.9095 60.2711 63.3447 69.5183C62.1139 72.0055 58.2581 76.7825 49.6162 73.3719C45.1595 71.6132 39.9622 65.7153 39.3877 58.1068C39.3877 58.1068 39.8331 56.3241 40.8636 52.0808C40.8636 52.0808 42.6768 67.9063 53.1373 68.336C57.5413 68.5175 59.6497 64.0127 58.3029 59.7614C56.6425 54.5093 52.4705 51.1334 41.8018 48.905Z" fill="white"/>
<path d="M37.282 14.7451C34.4277 14.7451 31.916 13.2293 31.916 10.0668C31.916 5.50065 35.6822 0.333984 37.282 0.333984C38.8817 0.333984 42.6505 5.50065 42.6505 10.0749C42.6505 13.2373 40.1363 14.7451 37.282 14.7451Z" fill="white"/>
<path d="M2.65374 87.7188H0.102539V100.075H2.65374V87.7188Z" fill="white"/>
<path d="M12.4894 87.457C11.7189 87.4591 10.9594 87.6418 10.2703 87.9908C9.71076 88.2633 9.22977 88.6768 8.87345 89.1917V87.7079H6.2959V100.064H8.87345V93.4163C8.87345 92.2688 9.19235 91.4041 9.81697 90.8543C10.4594 90.2949 11.2838 89.9963 12.131 90.0163C12.4788 89.9955 12.8266 90.0571 13.1468 90.196C13.467 90.335 13.7509 90.5476 13.9758 90.817C14.4239 91.3641 14.6505 92.13 14.6505 93.0961V100.067H17.2334V92.9386C17.2334 91.2039 16.8222 89.8429 16.0131 88.8901C15.204 87.9374 14.0048 87.457 12.4894 87.457Z" fill="white"/>
<path d="M26.9008 87.457C26.1312 87.4596 25.3727 87.6422 24.6843 87.9908C24.1259 88.2666 23.6475 88.684 23.2954 89.2024V87.7186H20.71V100.075H23.2954V93.4163C23.2954 92.2688 23.6117 91.4041 24.2389 90.8543C24.8807 90.2955 25.7041 89.997 26.5503 90.0163C26.8981 89.9955 27.2459 90.0571 27.5661 90.196C27.8864 90.335 28.1702 90.5476 28.3952 90.817C28.8432 91.3641 29.0725 92.13 29.0725 93.0961V100.067H31.6501V92.9386C31.6501 91.2039 31.2389 89.8429 30.4298 88.8901C29.6207 87.9374 28.4163 87.457 26.9008 87.457Z" fill="white"/>
<path d="M40.6901 87.4568C39.0087 87.4172 37.3803 88.0544 36.1623 89.2289C34.9394 90.4058 34.3174 91.9616 34.3174 93.8564C34.3174 95.7512 34.9394 97.3418 36.1623 98.5347C37.3901 99.6931 39.0066 100.336 40.6848 100.334C42.363 100.331 43.9776 99.6834 45.2021 98.5214C46.4435 97.3205 47.0707 95.7486 47.0707 93.8564C47.0707 91.9643 46.4461 90.4058 45.2259 89.2289C44.003 88.057 42.3734 87.4203 40.6901 87.4568ZM43.4047 96.7093C42.8645 97.2631 42.1718 97.6389 41.4173 97.7876C40.6627 97.9363 39.8815 97.851 39.1756 97.5427C38.4697 97.2345 37.8721 96.7178 37.461 96.0601C37.0499 95.4024 36.8443 94.6344 36.8712 93.8564C36.8514 93.339 36.94 92.8232 37.1313 92.343C37.3225 91.8628 37.612 91.429 37.9808 91.0703C38.7275 90.3914 39.6957 90.0158 40.6993 90.0158C41.7029 90.0158 42.6711 90.3914 43.4179 91.0703C43.7849 91.4299 44.0728 91.8641 44.2626 92.3442C44.4525 92.8243 44.54 93.3397 44.5195 93.8564C44.5397 94.3834 44.4519 94.9088 44.2619 95.3998C44.0719 95.8907 43.7836 96.3366 43.4152 96.7093H43.4047Z" fill="white"/>
<path d="M54.3706 96.6056L50.8179 87.7188H48.0928L53.1609 100.075H55.496V99.9602L55.5856 99.9976L60.6485 87.7188H57.8943L54.3706 96.6056Z" fill="white"/>
<path d="M71.9099 87.7196V89.2434C71.502 88.7092 70.9683 88.2872 70.3576 88.0158C69.567 87.6461 68.7062 87.4557 67.8354 87.4581C67.0243 87.4431 66.2185 87.5921 65.465 87.8963C64.7115 88.2006 64.0255 88.6541 63.4472 89.2301C62.2507 90.4097 61.6445 91.9736 61.6445 93.8844C61.6445 95.7952 62.2507 97.3404 63.4472 98.536C64.0216 99.1193 64.7062 99.5792 65.4602 99.8883C66.2142 100.197 67.0221 100.349 67.8354 100.335C68.7044 100.338 69.563 100.143 70.3471 99.7636C70.9621 99.4773 71.4986 99.043 71.9099 98.4986V100.076H74.4611V87.7196H71.9099ZM71.8836 93.8577C71.8836 95.0586 71.5093 96.022 70.7714 96.7212C70.0323 97.4205 69.0522 97.7989 68.041 97.7754C67.5443 97.786 67.0507 97.6939 66.5903 97.5049C66.1299 97.3158 65.7124 97.0338 65.3633 96.6759C65.0024 96.306 64.7196 95.8656 64.532 95.3816C64.3445 94.8976 64.256 94.38 64.2722 93.8603C64.2515 93.3525 64.3347 92.8458 64.5165 92.372C64.6983 91.8982 64.9748 91.4676 65.3286 91.107C65.6824 90.7465 66.106 90.4638 66.5727 90.2768C67.0395 90.0898 67.5393 90.0023 68.041 90.02C69.0344 90.0107 69.9952 90.3782 70.7345 91.0502C71.4935 91.7307 71.8836 92.6728 71.8836 93.8577Z" fill="white"/>
</g>
<defs>
<clipPath id="clip0_184_3994">
<rect width="74.359" height="100" fill="white" transform="translate(0.102539 0.333984)"/>
</clipPath>
</defs>
</svg>
