<svg width="60" height="60" viewBox="0 0 60 60" fill="none" xmlns="http://www.w3.org/2000/svg">
<g clip-path="url(#clip0_184_6888)">
<path d="M37.5 20C39.3708 21.4031 40.8105 23.3028 41.6555 25.4833C42.5005 27.6639 42.7168 30.0377 42.28 32.335M38.8375 38.84C38.4196 39.2578 37.9727 39.6454 37.5 40" stroke="#222222" stroke-width="3" stroke-linecap="round" stroke-linejoin="round"/>
<path d="M44.25 12.5C48.2624 15.7426 51.0386 20.2655 52.1136 25.3111C53.1887 30.3567 52.4972 35.6185 50.155 40.215M45.965 45.9625C45.42 46.5039 44.8475 47.0171 44.25 47.5" stroke="#222222" stroke-width="3" stroke-linecap="round" stroke-linejoin="round"/>
<path d="M22.6725 12.6351L23.75 11.2501C23.9685 10.8256 24.3316 10.4934 24.7737 10.3133C25.2158 10.1332 25.7078 10.1172 26.1606 10.2682C26.6135 10.4191 26.9974 10.7271 27.2431 11.1364C27.4887 11.5457 27.5798 12.0294 27.5 12.5001V17.5001M27.5 27.5001V47.5C27.5798 47.9707 27.4887 48.4544 27.2431 48.8637C26.9974 49.273 26.6135 49.581 26.1606 49.7319C25.7078 49.8829 25.2158 49.8669 24.7737 49.6868C24.3316 49.5067 23.9685 49.1745 23.75 48.75L15 37.5001H10C9.33696 37.5001 8.70107 37.2367 8.23223 36.7678C7.76339 36.299 7.5 35.6631 7.5 35.0001V25.0001C7.5 24.337 7.76339 23.7011 8.23223 23.2323C8.70107 22.7634 9.33696 22.5001 10 22.5001H15L18.235 18.3401" stroke="#222222" stroke-width="3" stroke-linecap="round" stroke-linejoin="round"/>
<path d="M7.5 7.5L52.5 52.5" stroke="#222222" stroke-width="3" stroke-linecap="round" stroke-linejoin="round"/>
</g>
<defs>
<clipPath id="clip0_184_6888">
<rect width="60" height="60" fill="white"/>
</clipPath>
</defs>
</svg>
