<svg width="800" height="480" viewBox="0 0 800 480" fill="none" xmlns="http://www.w3.org/2000/svg">
<rect width="800" height="480" fill="black"/>
<g clip-path="url(#clip0_184_3977)">
<path d="M391.624 215.396C391.624 215.396 394.197 206.919 394.788 204.912C394.788 204.912 384.026 151.118 343.12 149.104C343.12 149.104 321.031 147.116 316.235 166.506C312.294 182.428 317.603 200.265 334.474 212.904C334.474 212.904 350.64 227.021 387.961 227.021L389.509 222.283C389.509 222.283 339.312 220.797 331.099 189.929C327.358 175.854 334.552 165.266 347.127 165.653C353.719 165.855 362.263 166.758 371.831 177.69C381.399 188.621 386.647 197.522 391.618 215.402" fill="#404040"/>
<path d="M413.817 222.275C413.817 222.275 413.184 224.657 412.34 227.014C412.34 227.014 439.491 228.131 457.627 219.967C473.522 212.817 490.164 191.235 483.482 167.984C481.192 160.005 471.461 146.66 453.753 149.294C444.112 150.724 417.522 155.935 405.038 197.588C394.282 233.459 396.18 229.162 387.956 254.513C381.882 273.301 369.596 284.522 357.781 280.293C351.936 278.199 346.495 267.912 357.015 254.58C364.842 244.692 372.242 239.683 384.473 236.712L385.817 233.533C385.817 233.533 362.836 233.987 349.393 248.81C349.393 248.81 333.842 262.124 338.692 281.029C339.455 284.47 341.173 287.616 343.64 290.092C346.108 292.567 349.222 294.268 352.611 294.993C352.611 294.993 375.381 300.364 387.612 278.242C392.881 267.365 397.042 255.967 400.031 244.225C404.357 227.167 404.67 224.626 415.058 195.323C423.023 172.833 438.936 163.675 454.59 166.29C466.768 168.328 474.396 183.041 467.129 199.325C462.676 209.306 449.053 220.348 413.817 222.306" fill="#404040"/>
<path d="M410.334 236.713L411.28 233.49C411.28 233.49 425.072 233.662 437.725 238.818C450.866 244.17 470.021 262.855 459.585 284.123C456.771 289.844 447.956 300.831 428.199 292.987C418.01 288.942 406.128 275.376 404.814 257.877C404.814 257.877 405.833 253.777 408.189 244.017C408.189 244.017 412.334 280.416 436.249 281.404C446.317 281.821 451.138 271.46 448.059 261.682C444.263 249.603 434.724 241.838 410.334 236.713Z" fill="#404040"/>
<path d="M400 158.146C393.475 158.146 387.732 154.659 387.732 147.386C387.732 136.883 396.343 125 400 125C403.657 125 412.274 136.883 412.274 147.404C412.274 154.678 406.526 158.146 400 158.146Z" fill="#404040"/>
<path d="M320.833 325.984H315V354.404H320.833V325.984Z" fill="#404040"/>
<path d="M343.32 325.385C341.558 325.39 339.822 325.81 338.246 326.612C336.967 327.239 335.868 328.19 335.053 329.375V325.962H329.16V354.381H335.053V339.091C335.053 336.452 335.782 334.463 337.21 333.199C338.679 331.912 340.564 331.225 342.5 331.271C343.295 331.223 344.091 331.365 344.823 331.684C345.555 332.004 346.204 332.493 346.718 333.113C347.742 334.371 348.261 336.133 348.261 338.355V354.387H354.165V337.992C354.165 334.003 353.226 330.872 351.376 328.681C349.526 326.49 346.784 325.385 343.32 325.385Z" fill="#404040"/>
<path d="M376.266 325.385C374.506 325.391 372.772 325.811 371.199 326.612C369.922 327.247 368.828 328.207 368.023 329.399V325.986H362.112V354.406H368.023V339.091C368.023 336.452 368.746 334.463 370.18 333.199C371.648 331.913 373.53 331.227 375.465 331.271C376.26 331.223 377.055 331.365 377.787 331.684C378.519 332.004 379.168 332.493 379.682 333.113C380.707 334.371 381.231 336.133 381.231 338.355V354.387H387.124V337.992C387.124 334.003 386.184 330.872 384.334 328.681C382.484 326.49 379.731 325.385 376.266 325.385Z" fill="#404040"/>
<path d="M407.791 325.383C403.947 325.292 400.224 326.757 397.439 329.459C394.644 332.166 393.222 335.744 393.222 340.102C393.222 344.46 394.644 348.118 397.439 350.862C400.247 353.526 403.942 355.005 407.779 354.999C411.616 354.994 415.307 353.504 418.106 350.831C420.944 348.069 422.378 344.454 422.378 340.102C422.378 335.75 420.95 332.166 418.161 329.459C415.365 326.763 411.639 325.299 407.791 325.383ZM413.997 346.664C412.762 347.937 411.179 348.802 409.454 349.144C407.728 349.486 405.942 349.289 404.329 348.581C402.715 347.872 401.349 346.683 400.409 345.17C399.469 343.658 398.999 341.891 399.06 340.102C399.015 338.912 399.218 337.726 399.655 336.621C400.092 335.517 400.754 334.519 401.597 333.694C403.304 332.132 405.518 331.269 407.812 331.269C410.107 331.269 412.32 332.132 414.027 333.694C414.866 334.521 415.525 335.52 415.959 336.624C416.393 337.728 416.593 338.913 416.546 340.102C416.592 341.314 416.391 342.522 415.957 343.652C415.522 344.781 414.863 345.806 414.021 346.664H413.997Z" fill="#404040"/>
<path d="M439.068 346.424L430.946 325.984H424.716L436.303 354.404H441.641V354.14L441.846 354.226L453.421 325.984H447.124L439.068 346.424Z" fill="#404040"/>
<path d="M479.167 325.985V329.49C478.234 328.261 477.014 327.29 475.618 326.666C473.811 325.816 471.843 325.378 469.852 325.383C467.998 325.349 466.155 325.691 464.433 326.391C462.71 327.091 461.142 328.134 459.82 329.459C457.084 332.172 455.698 335.769 455.698 340.164C455.698 344.559 457.084 348.113 459.82 350.862C461.133 352.204 462.698 353.262 464.422 353.973C466.146 354.684 467.992 355.033 469.852 354.999C471.839 355.008 473.802 354.559 475.594 353.686C477 353.027 478.227 352.029 479.167 350.776V354.404H485V325.985H479.167ZM479.107 340.102C479.107 342.864 478.251 345.08 476.564 346.689C474.874 348.297 472.634 349.167 470.322 349.113C469.186 349.137 468.058 348.926 467.005 348.491C465.953 348.056 464.998 347.407 464.2 346.584C463.375 345.733 462.728 344.721 462.3 343.607C461.871 342.494 461.669 341.304 461.706 340.108C461.658 338.94 461.849 337.775 462.264 336.685C462.68 335.596 463.312 334.605 464.121 333.776C464.93 332.947 465.898 332.297 466.965 331.866C468.032 331.436 469.175 331.235 470.322 331.276C472.593 331.254 474.79 332.1 476.48 333.645C478.215 335.21 479.107 337.377 479.107 340.102Z" fill="#404040"/>
</g>
<defs>
<clipPath id="clip0_184_3977">
<rect width="170" height="230" fill="white" transform="translate(315 125)"/>
</clipPath>
</defs>
</svg>
