<svg width="61" height="61" viewBox="0 0 61 61" fill="none" xmlns="http://www.w3.org/2000/svg">
<g clip-path="url(#clip0_388_45)">
<path d="M25.5 10.25L30.5 12.75L35.5 10.25" stroke="#222222" stroke-width="3" stroke-linecap="round" stroke-linejoin="round"/>
<path d="M30.5 5.25V21.5L38 25.8" stroke="#222222" stroke-width="3" stroke-linecap="round" stroke-linejoin="round"/>
<path d="M45.3203 15.9199L45.6553 21.4999L50.3203 24.5799" stroke="#222222" stroke-width="3" stroke-linecap="round" stroke-linejoin="round"/>
<path d="M52.1496 17.75L38.0771 25.875L38.1021 34.52" stroke="#222222" stroke-width="3" stroke-linecap="round" stroke-linejoin="round"/>
<path d="M50.3203 35.9199L45.6553 38.9999L45.3203 44.5799" stroke="#222222" stroke-width="3" stroke-linecap="round" stroke-linejoin="round"/>
<path d="M52.15 42.75L38.0775 34.625L30.6025 38.97" stroke="#222222" stroke-width="3" stroke-linecap="round" stroke-linejoin="round"/>
<path d="M35.5 50.25L30.5 47.75L25.5 50.25" stroke="#222222" stroke-width="3" stroke-linecap="round" stroke-linejoin="round"/>
<path d="M30.5 55.2502V39.0002L23 34.7002" stroke="#222222" stroke-width="3" stroke-linecap="round" stroke-linejoin="round"/>
<path d="M15.6797 44.5799L15.3447 38.9999L10.6797 35.9199" stroke="#222222" stroke-width="3" stroke-linecap="round" stroke-linejoin="round"/>
<path d="M8.85059 42.7495L22.9231 34.6245L22.8981 25.9795" stroke="#222222" stroke-width="3" stroke-linecap="round" stroke-linejoin="round"/>
<path d="M10.6797 24.5799L15.3447 21.4999L15.6797 15.9199" stroke="#222222" stroke-width="3" stroke-linecap="round" stroke-linejoin="round"/>
<path d="M8.85059 17.75L22.9231 25.875L30.3981 21.53" stroke="#222222" stroke-width="3" stroke-linecap="round" stroke-linejoin="round"/>
</g>
<defs>
<clipPath id="clip0_388_45">
<rect width="60" height="60" fill="white" transform="translate(0.5 0.25)"/>
</clipPath>
</defs>
</svg>
